<?xml version="1.0" encoding="utf-8"?>
<!-- Generator: Adobe Illustrator 16.0.4, SVG Export Plug-In . SVG Version: 6.00 Build 0)  -->
<!DOCTYPE svg PUBLIC "-//W3C//DTD SVG 1.1//EN" "http://www.w3.org/Graphics/SVG/1.1/DTD/svg11.dtd">
<svg version="1.1" xmlns="http://www.w3.org/2000/svg" xmlns:xlink="http://www.w3.org/1999/xlink" x="0px" y="0px"
	 width="547.364px" height="370.433px" viewBox="0 0 547.364 370.433" enable-background="new 0 0 547.364 370.433"
	 xml:space="preserve">
<g id="granary_x5F_stroke">
	<g>
		<path fill="none" stroke="#FFFFFF" stroke-width="28.6875" d="M187.924,304.482v15.179h-28.929v-6.607
			c-5.179,6.25-11.072,10-18.929,8.215c-6.072-1.25-10.893-5.715-13.215-12.679c-3.036-8.394-4.286-31.43,1.964-41.965
			c4.822-7.857,10.893-9.644,16.607-9.644c4.107,0,11.072,1.786,13.572,3.394c0,0,0-7.5,0-11.072c0-4.464-0.179-8.214-4.107-10.714
			c-4.107-2.5-13.036-0.357-19.822,3.035l-6.25-15.893c12.322-3.393,34.108-7.679,45.179,0.893
			c7.857,5.894,7.143,18.572,7.143,24.822v53.036H187.924z M153.103,303.411c3.214,0,5.893-2.679,5.893-6.965v-16.607
			c0-4.285-2.679-6.785-5.893-6.785s-5.357,2.5-5.357,6.785v16.607C147.746,300.732,149.888,303.411,153.103,303.411z"/>
		<path fill="none" stroke="#FFFFFF" stroke-width="28.6875" d="M221.667,137.91v161.45h7.26v20.301h-38.211V299.36h7.26V158.688
			h-7.26V137.91H221.667z"/>
		<path fill="none" stroke="#FFFFFF" stroke-width="28.6875" d="M226.75,340.554h6.786V239.124h-6.786v-15.536h27.5v5.001
			c8.75-9.822,21.786-7.501,26.071-4.644c9.644,6.072,11.607,25.357,11.607,42.858c0,7.5,0,5,0,13.929
			c0,27.679-7.5,37.5-13.929,39.643c-5.356,1.965-15,3.036-22.321-6.071v26.251h6.786v15.535H226.75V340.554z M262.287,302.161
			c4.464,0,6.429-3.394,6.429-10.894v-39.821c0-7.5-1.965-10.715-6.429-10.715s-6.607,3.215-6.607,10.715v39.821
			C255.68,298.767,257.822,302.161,262.287,302.161z"/>
		<path fill="none" stroke="#FFFFFF" stroke-width="28.6875" d="M357.646,304.482v15.179h-28.93v-6.607
			c-5.179,6.25-11.071,10-18.929,8.215c-6.071-1.25-10.893-5.715-13.214-12.679c-3.036-8.394-4.286-31.43,1.964-41.965
			c4.821-7.857,10.894-9.644,16.607-9.644c4.107,0,11.071,1.786,13.571,3.394c0,0,0-7.5,0-11.072c0-4.464-0.178-8.214-4.106-10.714
			c-4.107-2.5-13.036-0.357-19.822,3.035l-6.25-15.893c12.321-3.393,34.107-7.679,45.18,0.893
			c7.856,5.894,7.143,18.572,7.143,24.822v53.036H357.646z M322.824,303.411c3.215,0,5.893-2.679,5.893-6.965v-16.607
			c0-4.285-2.678-6.785-5.893-6.785c-3.214,0-5.357,2.5-5.357,6.785v16.607C317.467,300.732,319.61,303.411,322.824,303.411z"/>
		<path fill="none" stroke="#FFFFFF" stroke-width="28.6875" d="M399.433,290.553l14.465,2.321
			c-0.536,5.893-4.107,22.857-13.571,26.965c-5.357,2.321-7.5,1.785-12.5,1.785c-24.107,0-28.036-22.143-28.036-49.821
			c0-27.501,6.785-50.358,27.5-50.358c8.393,0,11.429,4.107,13.036,7.322v-7.322h13.929v35.18H399.79
			c0-4.286,0.179-15.357-5.357-18.751c-1.428-0.714-2.321-0.893-4.821-0.893c-4.464,0-6.785,5.536-6.785,11.25v47.501
			c0,7.679,2.321,11.25,6.785,11.25c1.429,0,2.857,0,5-1.25C397.826,303.589,399.255,296.267,399.433,290.553z"/>
		<path fill="none" stroke="#FFFFFF" stroke-width="28.6875" d="M479.971,304.482v15.179h-28.93v-6.607
			c-5.179,6.25-11.071,10-18.929,8.215c-6.071-1.25-10.893-5.715-13.214-12.679c-3.036-8.394-4.286-31.43,1.964-41.965
			c4.821-7.857,10.894-9.644,16.607-9.644c4.107,0,11.071,1.786,13.571,3.394c0,0,0-7.5,0-11.072c0-4.464-0.178-8.214-4.106-10.714
			c-4.107-2.5-13.036-0.357-19.822,3.035l-6.25-15.893c12.321-3.393,34.107-7.679,45.18,0.893
			c7.856,5.894,7.143,18.572,7.143,24.822v53.036H479.971z M445.148,303.411c3.215,0,5.893-2.679,5.893-6.965v-16.607
			c0-4.285-2.678-6.785-5.893-6.785c-3.214,0-5.357,2.5-5.357,6.785v16.607C439.791,300.732,441.935,303.411,445.148,303.411z"/>
		<path fill="none" stroke="#FFFFFF" stroke-width="28.6875" d="M515.15,223.587h14.107v27.322h-14.286
			c0.893-5.357-0.357-10.893-3.571-13.214c-1.429-0.894-3.394-1.25-5.715-0.357c-2.143,0.714-3.75,3.035-4.107,6.25
			c-0.535,4.107,1.25,9.464,9.465,16.25l3.036,2.321c16.071,14.286,21.25,26.251,18.035,41.251c-1.25,6.607-5.356,15-13.035,17.143
			c-6.429,1.965-15.001,2.321-23.036-6.25v5.357h-13.929v-29.822h14.285c-0.356,6.786-0.535,12.144,3.572,15.18
			c1.25,1.25,4.106,1.785,5.893,0.893c2.5-1.25,3.929-3.393,4.286-7.321c0.535-6.786-2.322-11.786-10.179-19.822l-3.215-3.035
			c-10-9.286-17.321-21.251-13.75-39.465c1.071-4.644,5.357-11.608,12.321-13.93c4.286-1.607,13.215-1.786,19.822,6.786V223.587z"/>
	</g>
</g>
<g id="granary">
	<linearGradient id="SVGID_1_" gradientUnits="userSpaceOnUse" x1="381.041" y1="211.8945" x2="381.041" y2="141.3262">
		<stop  offset="0" style="stop-color:#60391C"/>
		<stop  offset="0.2025" style="stop-color:#5E371B"/>
		<stop  offset="0.3772" style="stop-color:#593418"/>
		<stop  offset="0.5417" style="stop-color:#4F2D11"/>
		<stop  offset="0.6999" style="stop-color:#422204"/>
		<stop  offset="0.8521" style="stop-color:#2D1000"/>
		<stop  offset="1" style="stop-color:#000000"/>
	</linearGradient>
	<path fill="url(#SVGID_1_)" d="M260.152,153.371h9.328v18.068h-9.875c0-4.607,0.273-8.631-2.469-9.947
		c-1.195-0.512-2.836-0.656-4.301-0.221c-3.291,1.1-3.656,4.098-3.656,8.633v25.238c0,4.098-0.365,7.535,2.559,8.926
		c0.916,0.365,2.562,0.438,3.57,0.072c1.641-0.584,2.559-1.975,2.559-4.607v-9.438h-4.664v-7.682h16.641v29.48h-4.938l-1.645-2.779
		c-5.672,2.707-10.791,3.73-16.916,1.537c-8.869-3.219-9.877-10.754-9.877-18.508v-13.828c0-11.336,1.373-20.48,9.42-24.066
		c1.461-0.732,8.779-2.268,14.264,1.9V153.371z M290.051,147.934c4.586,0,13.219-0.324,17.809,6.051
		c3.863,5.395,4.223,14.553,0.988,19.539c-2.523,3.68-6.926,6.053-8.992,6.541c10.07,2.209,9.352,8.258,9.352,17.17v5.152h3.598
		v8.338h-16.637v-20.439c0-5.07-2.789-5.971-6.836-5.971v18.072h3.688v8.338h-20.324v-8.338h3.684v-46.111h-3.684v-8.342H290.051z
		 M297.426,168.619v-5.232c0-6.459-2.43-7.111-8.094-7.111v19.537C295.895,175.812,297.426,174.096,297.426,168.619z
		 M349.41,144.631v8.775h-4.336l9.578,48.539h3.164v8.779h-19.793v-8.779h3.793l-1.172-6.367h-11.207l-1.262,6.367h3.883v8.779
		h-17.172v-8.779h2.805l10.301-48.539h-3.164v-8.775H349.41z M339.02,186.371l-3.527-21.26l-4.156,21.26H339.02z M387.551,211.176
		l-13.195-37.32v27.652h3.707v9.217h-17.801v-9.217h3.703v-50.967h-3.703v-9.215h14.457l12.738,36.234v-27.02h-3.703v-9.215h17.441
		v9.215h-3.707v60.635H387.551z M435.992,144.631v8.775h-4.34l9.586,48.539h3.156v8.779h-19.789v-8.779h3.797l-1.172-6.367h-11.207
		l-1.266,6.367h3.887v8.779h-17.172v-8.779h2.805l10.301-48.539h-3.164v-8.775H435.992z M425.605,186.371l-3.523-21.26l-4.164,21.26
		H425.605z M464.18,147.934c4.586,0,13.219-0.324,17.809,6.051c3.867,5.395,4.227,14.553,0.984,19.539
		c-2.516,3.68-6.922,6.053-8.988,6.541c10.074,2.209,9.355,8.258,9.355,17.17v5.152h3.594v8.338h-16.641v-20.439
		c0-5.07-2.785-5.971-6.832-5.971v18.072h3.688v8.338h-20.324v-8.338h3.688v-46.111h-3.688v-8.342H464.18z M471.555,168.619v-5.232
		c0-6.459-2.426-7.111-8.094-7.111v19.537C470.027,175.812,471.555,174.096,471.555,168.619z M505.312,154.541v7.463h-4.027
		l5.215,17.41l5.668-17.41h-3.562v-7.463h17.008v7.463h-3.203l-11.156,27.508v13.75h3.75v7.463H494.34v-7.463h3.75v-15.799
		l-9.422-25.459h-3.016v-7.463H505.312z"/>
</g>
<g id="alpacas">
	<g>
		<path fill="#BEBB85" d="M187.924,304.482v15.179h-28.929v-6.607c-5.179,6.25-11.072,10-18.929,8.215
			c-6.072-1.25-10.893-5.715-13.215-12.679c-3.036-8.394-4.286-31.43,1.964-41.965c4.822-7.857,10.893-9.644,16.607-9.644
			c4.107,0,11.072,1.786,13.572,3.394c0,0,0-7.5,0-11.072c0-4.464-0.179-8.214-4.107-10.714c-4.107-2.5-13.036-0.357-19.822,3.035
			l-6.25-15.893c12.322-3.393,34.108-7.679,45.179,0.893c7.857,5.894,7.143,18.572,7.143,24.822v53.036H187.924z M153.103,303.411
			c3.214,0,5.893-2.679,5.893-6.965v-16.607c0-4.285-2.679-6.785-5.893-6.785s-5.357,2.5-5.357,6.785v16.607
			C147.746,300.732,149.888,303.411,153.103,303.411z"/>
		<path fill="#BEBB85" d="M221.667,137.91v161.45h7.26v20.301h-38.211V299.36h7.26V158.688h-7.26V137.91H221.667z"/>
		<path fill="#BEBB85" d="M226.75,340.554h6.786V239.124h-6.786v-15.536h27.5v5.001c8.75-9.822,21.786-7.501,26.071-4.644
			c9.644,6.072,11.607,25.357,11.607,42.858c0,7.5,0,5,0,13.929c0,27.679-7.5,37.5-13.929,39.643
			c-5.356,1.965-15,3.036-22.321-6.071v26.251h6.786v15.535H226.75V340.554z M262.287,302.161c4.464,0,6.429-3.394,6.429-10.894
			v-39.821c0-7.5-1.965-10.715-6.429-10.715s-6.607,3.215-6.607,10.715v39.821C255.68,298.767,257.822,302.161,262.287,302.161z"/>
		<path fill="#BEBB85" d="M357.646,304.482v15.179h-28.93v-6.607c-5.179,6.25-11.071,10-18.929,8.215
			c-6.071-1.25-10.893-5.715-13.214-12.679c-3.036-8.394-4.286-31.43,1.964-41.965c4.821-7.857,10.894-9.644,16.607-9.644
			c4.107,0,11.071,1.786,13.571,3.394c0,0,0-7.5,0-11.072c0-4.464-0.178-8.214-4.106-10.714c-4.107-2.5-13.036-0.357-19.822,3.035
			l-6.25-15.893c12.321-3.393,34.107-7.679,45.18,0.893c7.856,5.894,7.143,18.572,7.143,24.822v53.036H357.646z M322.824,303.411
			c3.215,0,5.893-2.679,5.893-6.965v-16.607c0-4.285-2.678-6.785-5.893-6.785c-3.214,0-5.357,2.5-5.357,6.785v16.607
			C317.467,300.732,319.61,303.411,322.824,303.411z"/>
		<path fill="#BEBB85" d="M399.433,290.553l14.465,2.321c-0.536,5.893-4.107,22.857-13.571,26.965
			c-5.357,2.321-7.5,1.785-12.5,1.785c-24.107,0-28.036-22.143-28.036-49.821c0-27.501,6.785-50.358,27.5-50.358
			c8.393,0,11.429,4.107,13.036,7.322v-7.322h13.929v35.18H399.79c0-4.286,0.179-15.357-5.357-18.751
			c-1.428-0.714-2.321-0.893-4.821-0.893c-4.464,0-6.785,5.536-6.785,11.25v47.501c0,7.679,2.321,11.25,6.785,11.25
			c1.429,0,2.857,0,5-1.25C397.826,303.589,399.255,296.267,399.433,290.553z"/>
		<path fill="#BEBB85" d="M479.971,304.482v15.179h-28.93v-6.607c-5.179,6.25-11.071,10-18.929,8.215
			c-6.071-1.25-10.893-5.715-13.214-12.679c-3.036-8.394-4.286-31.43,1.964-41.965c4.821-7.857,10.894-9.644,16.607-9.644
			c4.107,0,11.071,1.786,13.571,3.394c0,0,0-7.5,0-11.072c0-4.464-0.178-8.214-4.106-10.714c-4.107-2.5-13.036-0.357-19.822,3.035
			l-6.25-15.893c12.321-3.393,34.107-7.679,45.18,0.893c7.856,5.894,7.143,18.572,7.143,24.822v53.036H479.971z M445.148,303.411
			c3.215,0,5.893-2.679,5.893-6.965v-16.607c0-4.285-2.678-6.785-5.893-6.785c-3.214,0-5.357,2.5-5.357,6.785v16.607
			C439.791,300.732,441.935,303.411,445.148,303.411z"/>
		<path fill="#BEBB85" d="M515.15,223.587h14.107v27.322h-14.286c0.893-5.357-0.357-10.893-3.571-13.214
			c-1.429-0.894-3.394-1.25-5.715-0.357c-2.143,0.714-3.75,3.035-4.107,6.25c-0.535,4.107,1.25,9.464,9.465,16.25l3.036,2.321
			c16.071,14.286,21.25,26.251,18.035,41.251c-1.25,6.607-5.356,15-13.035,17.143c-6.429,1.965-15.001,2.321-23.036-6.25v5.357
			h-13.929v-29.822h14.285c-0.356,6.786-0.535,12.144,3.572,15.18c1.25,1.25,4.106,1.785,5.893,0.893
			c2.5-1.25,3.929-3.393,4.286-7.321c0.535-6.786-2.322-11.786-10.179-19.822l-3.215-3.035c-10-9.286-17.321-21.251-13.75-39.465
			c1.071-4.644,5.357-11.608,12.321-13.93c4.286-1.607,13.215-1.786,19.822,6.786V223.587z"/>
	</g>
</g>
<g id="head">
	<path fill="none" stroke="#BEBB85" stroke-width="5.445" d="M164.613,204.856c-13.852-60.213-9.176-104.905-30.654-132.516
		c11.648-9.32-6.586-61.527-6.984-69.617h-2.545c-0.363,0.525-0.758,1.172-1.195,1.965c-9.207,13.295-16.887,45.152-30.184,45.152
		c-13.295,0-62.385,18.408-58.293,51.137c-5.113-1.025-21.939,11.27-31.143,16.385c0,0-0.445,0.898-0.893,2.348v11.045
		c0.242,0.654,0.525,1.307,0.893,1.949c0,0,6.598,16.338,14.777,14.297c0,0,8.178,8.18,16.365,4.092c0,0,10.225,12.27,26.59,16.361
		c4.088,6.133,8.18,103.293,17.389,122.725c8.928,18.857,22.676,40.604,31.893,50.281"/>
</g>
</svg>
