<?xml version="1.0" encoding="utf-8"?>
<!-- Generator: Adobe Illustrator 16.0.4, SVG Export Plug-In . SVG Version: 6.00 Build 0)  -->
<!DOCTYPE svg PUBLIC "-//W3C//DTD SVG 1.1//EN" "http://www.w3.org/Graphics/SVG/1.1/DTD/svg11.dtd">
<svg version="1.1" id="Layer_1" xmlns="http://www.w3.org/2000/svg" xmlns:xlink="http://www.w3.org/1999/xlink" x="0px" y="0px"
	 width="1843.915px" height="556.856px" viewBox="0 0 1843.915 556.856" enable-background="new 0 0 1843.915 556.856"
	 xml:space="preserve">
<g>
	<g>
		<path fill="#0054A4" d="M119.178,0.006h142.313c67.841,0,109.733,14.771,108.318,79.578
			c-0.856,38.597-25.351,74.341-65.302,79.107l-0.022,0.949c32.064,8.578,49.483,36.214,48.771,69.096
			c-1.612,73.862-64.117,111.51-131.946,111.51H40.571L119.178,0.006z M125.809,282.108h93.455
			c33.677,0,58.752-18.582,59.543-54.798c0.79-35.744-30.934-38.602-57.974-38.602H147.78L125.809,282.108z M159.332,137.723h84.438
			c27.04,0,50.613-15.254,51.271-44.795c0.56-25.734-14.425-34.789-38.618-34.789h-78.745L159.332,137.723z"/>
		<path fill="#0054A4" d="M450.281,0h76.853l86.724,242.081h0.955L668.497,0h68.307l-79.079,340.246h-74.472l-87.755-238.739h-0.943
			l-53.619,238.739h-69.733L450.281,0z"/>
	</g>
	<g>
		<path fill="#0054A4" d="M793.319,82.831h-18.791l5.978-23.924h19.086l14.042-56.894h35.607L835.2,58.907h57.261l-5.704,23.924
			h-57.25l-16.53,67.096c-0.571,3.209-1.13,6.17-1.701,9.126c0.571,5.676,4.267,7.158,13.383,7.158
			c18.813,0,21.073-14.311,24.495-27.385h31.636c-3.993,17.271-10.553,31.33-18.527,38.974
			c-10.542,9.132-26.492,12.089-43.296,12.089c-12.824,0-31.044,0-39.601-8.628c-3.137-3.461-4.837-8.633-5.407-14.068
			c0.57-5.666,2.27-12.088,3.411-17.754L793.319,82.831z"/>
		<path fill="#0054A4" d="M924.36,188.407h-36.177l45.567-185h35.617l-18.504,75.234h1.699c13.395-20.728,35.604-21.21,52.412-21.21
			c17.672,0,29.343,2.709,36.76,10.108c3.685,4.196,4.837,11.102,4.837,18.253c0,5.676-0.581,11.595-1.702,16.284l-21.082,86.33
			h-36.2l20.522-82.387c0.572-3.449,1.143-7.151,1.143-10.602c0-12.094-11.682-14.063-23.364-14.556
			c-12.823,0-22.214,2.955-28.762,7.398c-7.976,5.183-12.252,16.279-15.677,28.861L924.36,188.407z"/>
		<path fill="#0054A4" d="M1103.537,129.705c-1.142,6.657-3.995,14.796-4.553,22.195c0.558,4.689,1.7,8.633,5.692,10.603
			c4.85,2.721,10.529,3.708,24.506,3.708c14.808,0,22.213-0.494,28.191-4.684c2.852-1.974,6.274-4.937,8.546-14.062h35.903
			c-3.139,13.563-10.553,26.386-22.225,33.796c-13.679,8.133-33.895,8.628-55.551,8.628c-22.783,0-44.448-1.481-54.407-13.564
			c-3.982-4.689-5.694-12.089-6.274-20.228c0.58-11.596,3.422-24.423,5.702-34.286c5.991-23.93,13.385-40.948,27.634-51.062
			c14.534-10.608,36.178-13.317,56.405-13.317c15.938,0,41.016,0.981,51.556,10.607c5.694,5.172,7.975,12.824,7.975,22.69
			c0,12.33-3.992,26.88-6.273,38.976H1103.537z M1177.602,94.426c0-14.058-16.235-13.071-29.057-13.563
			c-11.113,0-22.784,0.492-29.628,5.917c-5.979,4.689-8.821,14.798-10.533,23.184h66.938
			C1176.462,104.54,1177.602,98.869,1177.602,94.426z"/>
		<path fill="#0054A4" d="M1281.286,76.172c12.823-16.283,29.628-18.259,44.733-18.741c18.801,0,31.613,8.633,31.613,24.413
			c0,9.126-3.421,19.241-4.563,26.645h-33.895c1.711-7.404,2.853-13.07,2.853-17.019c0-7.651-3.994-10.606-14.524-10.606
			c-17.671,0-28.213,7.893-33.326,28.114l-19.942,79.43h-35.607l31.615-129.5h35.036l-4.837,17.266H1281.286z"/>
		<path fill="#0054A4" d="M1420.587,77.648c13.964-17.759,35.607-20.217,52.414-20.217c23.924,0,39.314,6.659,39.016,22.937h0.867
			c12.253-19.24,35.037-22.937,53.555-22.937c32.754,0,42.156,9.121,42.156,25.399c0,6.418-1.142,13.076-2.568,20.229
			l-20.786,85.348h-36.179l20.217-80.906c1.142-4.93,1.712-9.131,1.712-12.582c0-11.102-6.835-14.057-21.929-14.057
			c-22.795,0.492-35.049,7.398-41.586,34.291l-17.956,73.253h-36.179l20.241-80.906c1.117-4.93,1.7-9.131,1.7-12.582
			c0-10.607-6.264-14.057-21.941-14.057c-23.923,0.492-35.605,8.386-41.584,34.291l-17.946,73.253h-35.893l31.614-129.5h35.038
			l-5.113,18.742H1420.587z"/>
		<path fill="#0054A4" d="M1686.651,58.907l-32.194,129.5h-35.618l31.639-129.5H1686.651z M1700.035,3.407l-6.265,26.393h-36.176
			l6.262-26.393H1700.035z"/>
		<path fill="#0054A4" d="M1804.574,94.426c0-12.582-16.234-13.071-27.917-13.563c-14.523,0-22.783,2.462-27.918,7.398
			c-7.108,7.158-8.819,15.785-12.812,32.804c-2.566,11.347-6.549,21.956-6.549,30.835c0.561,3.703,1.142,7.153,3.41,9.626
			c3.71,3.697,10.543,4.684,18.803,5.177c11.124-1.975,23.365,1.476,32.766-5.177c5.123-3.948,8.546-13.575,10.256-22.208h36.179
			c-2.853,11.6-9.697,31.334-25.077,40.954c-12.812,7.646-32.469,10.108-54.123,9.615c-23.365,0-42.165-0.987-51.271-12.089
			c-4.279-5.172-6.551-11.589-7.119-19.729c0.568-9.127,2.84-19.734,5.693-32.81c7.688-32.316,13.666-42.918,25.36-53.037
			c16.235-13.317,39.02-14.311,58.663-14.793c19.943,0,39.318,1.963,48.728,8.633c7.407,5.672,9.677,13.559,9.677,21.209
			c0,6.658-1.713,13.071-2.27,17.267h-36.191C1803.432,101.578,1804.574,97.881,1804.574,94.426z"/>
	</g>
	<polygon fill="#EF4135" points="1802.565,267.07 745.162,267.07 754.443,224.491 1811.857,224.491 	"/>
	<polygon fill="#EF4135" points="1786.584,340.301 729.169,340.301 738.46,297.723 1795.865,297.723 	"/>
</g>
<g>
	<path fill="#EF4236" d="M193.986,429.589c0.039,1.093-0.106,2.256-0.437,3.49c-1.934,7.217-10.134,16.997-24.598,29.342
		c-13.116,11.205-27.391,20.535-42.824,27.988c-17.351,8.404-34.287,12.605-50.809,12.605c-12.488,0-22.886-2.659-31.193-7.977
		c-11.569-7.502-17.307-17.805-17.214-30.908c0.062-4.131,0.697-8.45,1.906-12.962c1.424-5.316,3.648-10.872,6.673-16.665
		c9.709-18.517,24.165-34.636,43.367-48.357c18.505-13.247,35.307-19.869,50.405-19.869c0.665,0,1.322,0.024,1.975,0.071
		c2.88,0.237,5.387,1.067,7.522,2.492c2.355,1.662,3.6,3.751,3.733,6.267c0.056,0.855-0.024,1.687-0.241,2.493
		c-1.285,4.796-7.281,9.187-17.988,13.175l-5.843,2.137c-15.951,5.841-28,11.822-36.145,17.947
		c-8.073,6.03-14.974,12.56-20.702,19.585c-5.79,7.075-9.504,13.674-11.145,19.799c-0.293,1.093-0.507,2.161-0.645,3.205
		c-1.302,8.403,1.792,15.194,9.285,20.368c6.283,4.369,14.458,6.552,24.524,6.552c16,0,31.657-4.653,46.97-13.958
		c0.167-0.095,1.472-1.068,3.916-2.92c31.923-24.167,50.853-36.25,56.788-36.25C193.024,427.24,193.93,428.023,193.986,429.589z"/>
	<path fill="#EF4236" d="M247.254,482.078c2.146,4.748,2.807,8.665,1.979,11.75c-1.051,2.327-3.076,4.393-6.076,6.196
		c-2.953,1.806-5.806,2.707-8.559,2.707c-2.279,0-3.988-0.713-5.125-2.138c-2.37-2.848-3.755-8.403-4.152-16.664
		c-0.264-6.456-1.021-10.896-2.271-13.318c-0.605,0.666-1.514,1.662-2.724,2.991c-7.303,8.119-13.076,13.983-17.319,17.591
		c-7.304,6.172-14.221,9.924-20.748,11.252c-1.907,0.382-3.69,0.57-5.352,0.57c-4.843,0-8.347-1.542-10.511-4.629
		c-2.212-3.086-2.748-7.288-1.608-12.605c2.875-10.729,13.218-23.905,31.031-39.526c21.275-14.196,36.376-21.294,45.303-21.294
		h0.712c3.608,0,5.517,3.418,5.727,10.255c0.156,3.847-0.357,9.924-1.538,18.232c-0.444,2.896-0.683,4.677-0.719,5.341
		c0.002,0.523-0.068,1.757-0.209,3.704c-0.461,6.505-0.432,11.181,0.086,14.029C245.42,477.757,246.111,479.609,247.254,482.078z
		 M220.871,448.177c-0.234-0.188-0.541-0.284-0.92-0.284c-1.567,0-4.128,1.495-7.683,4.485c-4.557,3.895-9.463,9.094-14.719,15.598
		c-4.858,6.078-7.961,10.659-9.31,13.745c5.258-1.377,11.621-5.982,19.085-13.816C214.642,460.261,219.157,453.685,220.871,448.177z
		"/>
	<path fill="#EF4236" d="M290.596,490.267c-1.221,4.559-3.178,8.048-5.867,10.469c-1.689,1.521-3.508,2.279-5.454,2.279
		c-1.947,0-3.962-0.807-6.046-2.422c-4.497-3.418-4.203-16.83,0.882-40.237c0.815-3.75,1.311-6.22,1.486-7.407
		c1.434-7.834,3.239-15.811,5.415-23.93l1.164-4.344c4.911-18.326,10.621-36.273,17.133-53.841l0.224-0.569l0.575-0.285
		c3.931-2.09,7.581-3.134,10.953-3.134c1.804,0,3.127,0.641,3.972,1.923c2.009,3.133,1.34,10.944-2.005,23.431
		c-1.73,6.458-4.171,14.149-7.322,23.074c-1.015,2.897-1.634,4.678-1.859,5.342c-1.157,3.608-2.225,7.24-3.205,10.896
		c-4.364,16.285-7.292,33.33-8.787,51.135C291.625,485.449,291.207,487.989,290.596,490.267z"/>
	<path fill="#EF4236" d="M334.921,490.267c-1.221,4.559-3.178,8.048-5.867,10.469c-1.689,1.521-3.507,2.279-5.454,2.279
		c-1.948,0-3.962-0.807-6.046-2.422c-4.497-3.418-4.203-16.83,0.882-40.237c0.815-3.75,1.311-6.22,1.486-7.407
		c1.434-7.834,3.239-15.811,5.415-23.93l1.164-4.344c4.911-18.326,10.621-36.273,17.133-53.841l0.224-0.569l0.575-0.285
		c3.931-2.09,7.581-3.134,10.953-3.134c1.804,0,3.127,0.641,3.972,1.923c2.009,3.133,1.34,10.944-2.005,23.431
		c-1.73,6.458-4.171,14.149-7.322,23.074c-1.015,2.897-1.634,4.678-1.859,5.342c-1.157,3.608-2.225,7.24-3.205,10.896
		c-4.364,16.285-7.292,33.33-8.787,51.135C335.951,485.449,335.532,487.989,334.921,490.267z"/>
	<path fill="#EF4236" d="M522.457,430.088c0.399,1.52,0.416,2.967,0.047,4.344c-0.293,1.093-0.805,2.112-1.533,3.062
		c-2.942,3.894-8.521,6.552-16.737,7.976c-5.072,0.855-12.671,1.663-22.798,2.423l-2.906,0.213
		c-0.137,0.333-0.462,1.282-0.977,2.849c-1.401,3.988-2.4,7.098-2.999,9.33c-0.254,0.95-0.441,1.733-0.558,2.35
		c-0.865,5.176-2.275,11.681-4.232,19.514l-0.858,3.205c-2.914,10.873-5.379,16.619-7.396,17.235
		c-0.172,0.284-1.445,0.427-3.818,0.427c-5.745,0-8.792-0.237-9.139-0.712c-2.945-3.893-2.643-12.464,0.907-25.71
		c1.081-4.034,2.46-8.475,4.138-13.318c0.288-0.9,0.548-1.779,0.777-2.635c1.107-4.13,1.106-7.051-0.003-8.76
		c-0.971-1.52-3.805-2.278-8.506-2.278h-1.281c-0.773,0.047-1.492,0.071-2.156,0.071c-3.181,0-5.526-0.285-7.035-0.855
		c-2.97-1.139-4.678-3.536-5.123-7.193l0.114-0.427c0.471-1.756,1.459-3.229,2.963-4.415c3.397-2.754,8.703-4.131,15.92-4.131
		c1.613,0,2.972,0.071,4.073,0.213c0.875,0.096,1.695,0.143,2.455,0.143c1.804,0,3.625-0.331,5.466-0.996
		c1.11-6.268,2.479-12.438,4.107-18.518c1.259-4.7,2.666-9.329,4.22-13.888c4.806-13.862,9.916-23.098,15.328-27.704
		c2.652-2.278,5.378-3.418,8.18-3.418h0.712c1.14,0,2.016,0.452,2.629,1.354c1.351,2.041,0.838,7.502-1.541,16.38
		c-1.4,5.224-3.443,11.609-6.13,19.157c-1.75,4.939-2.854,8.167-3.307,9.686c-0.506,1.71-1.127,3.942-1.865,6.695l-2.271,8.476
		c-0.204,0.759,1.142,1.139,4.039,1.139c0.616,0,1.312-0.023,2.084-0.071c4.479-0.237,10.166-0.997,17.062-2.279
		c0.357-0.094,1.145-0.284,2.361-0.569c4.314-1.044,7.541-1.567,9.678-1.567C519.969,426.882,521.937,427.952,522.457,430.088z"/>
	<path fill="#EF4236" d="M579.547,493.828l-0.153,0.57c-1.745,5.271-4.944,7.905-9.596,7.905c-5.27,0-9.858-2.279-13.765-6.837
		c-3.238-5.459-4.249-15.336-3.029-29.627c0.183-2.279,0.295-3.584,0.337-3.917c-1.712,2.137-4.74,6.528-9.085,13.176
		c-5.884,9.021-10.299,15.312-13.248,18.872c-5.034,6.03-9.214,9.045-12.536,9.045c-3.466,0-6.054-1.328-7.763-3.988
		c-2.541-3.988-3.008-8.973-1.405-14.955c0.254-0.95,0.562-1.924,0.925-2.92c2.249-6.268,5.072-15.74,8.468-28.416
		c1.242-4.463,2.215-8,2.915-10.612c3.878-13.769,8.05-26.588,12.512-38.458c8.299-21.935,14.988-32.902,20.069-32.902
		c0.901,0,1.698,0.31,2.387,0.926c2.999,1.567,3.324,6.908,0.977,16.024l-0.133,0.498c-1.68,6.267-5.084,15.787-10.216,28.559
		c-1.877,4.7-3.005,7.668-3.382,8.902c-3.127,9.543-5.747,18.257-7.858,26.138c-0.941,3.514-1.785,6.837-2.529,9.97
		c3.444-2.753,7.429-7.881,11.956-15.383c3.206-5.413,5.864-9.306,7.973-11.681c3.502-4.034,7.601-6.931,12.298-8.688
		c1.064-0.428,2.047-0.642,2.949-0.642c4.131,0,6.409,3.988,6.836,11.965c0.299,5.793-0.397,14.505-2.089,26.138
		c-0.272,1.899-0.435,3.038-0.489,3.418c-0.169,12.677,1.945,21.532,6.342,26.564L579.547,493.828z"/>
	<path fill="#EF4236" d="M677.03,459.714c4.152-2.563,7.107-3.846,8.864-3.846c1.756,0,2.279,1.33,1.566,3.988
		c-3.29,8.024-10.034,16.452-20.234,25.283c-9.935,8.545-19.212,14.196-27.831,16.949c-3.014,0.617-5.922,0.926-8.723,0.926
		c-13.912,0-24.62-7.88-32.122-23.645c-2.551-5.364-2.573-12.723-0.067-22.077c1.056-3.94,2.569-8.262,4.542-12.962
		c3.546-8.45,11.782-14.03,24.71-16.736c1.763-0.38,3.452-0.57,5.066-0.57c4.416,0,8.165,1.425,11.247,4.273
		c3.502,3.229,5.938,8.048,7.308,14.458c0.031,2.896-0.291,5.602-0.965,8.118c-1.998,7.455-7.097,13.461-15.297,18.019
		c-1.343,0.76-3.054,1.472-5.13,2.136c-2.34,0.761-3.75,1.236-4.228,1.425c-1.137,0.523-1.814,1.188-2.03,1.994l-0.038,0.143
		c-0.173,0.997,0.296,2.35,1.405,4.06c2.356,3.608,5.695,5.412,10.016,5.412c1.234,0,2.554-0.143,3.96-0.427
		c5.886-1.234,12.484-5.128,19.794-11.68C668.626,466.267,674.688,461.187,677.03,459.714z M618.756,465.625
		c3.038,0,5.817-1.067,8.337-3.204c2.325-1.947,4.019-4.369,5.08-7.265c0.173-0.474,0.325-0.95,0.453-1.425
		c0.611-2.279,0.582-4.297-0.087-6.053c-0.884-2.374-2.747-3.75-5.587-4.131c-0.369-0.047-0.718-0.071-1.05-0.071
		c-1.899,0-3.582,0.783-5.045,2.351c-1.525,1.613-2.669,3.846-3.432,6.694C615.719,458.884,616.163,463.252,618.756,465.625z"/>
	<path fill="#EF4236" d="M832.106,493.828l-0.153,0.57c-1.745,5.271-4.944,7.905-9.596,7.905c-5.27,0-9.858-2.279-13.765-6.837
		c-3.238-5.459-4.248-15.336-3.029-29.627c0.184-2.279,0.295-3.584,0.337-3.917c-1.711,2.137-4.74,6.528-9.085,13.176
		c-5.883,9.021-10.299,15.312-13.247,18.872c-5.034,6.03-9.214,9.045-12.536,9.045c-3.467,0-6.054-1.328-7.763-3.988
		c-2.54-3.988-3.008-8.973-1.405-14.955c0.254-0.95,0.562-1.924,0.925-2.92c2.25-6.268,5.072-15.74,8.469-28.416
		c1.242-4.463,2.215-8,2.915-10.612c3.878-13.769,8.05-26.588,12.512-38.458c8.299-21.935,14.988-32.902,20.068-32.902
		c0.901,0,1.698,0.31,2.388,0.926c2.999,1.567,3.323,6.908,0.976,16.024l-0.133,0.498c-1.68,6.267-5.085,15.787-10.216,28.559
		c-1.877,4.7-3.005,7.668-3.382,8.902c-3.127,9.543-5.747,18.257-7.858,26.138c-0.942,3.514-1.785,6.837-2.529,9.97
		c3.444-2.753,7.428-7.881,11.956-15.383c3.206-5.413,5.864-9.306,7.972-11.681c3.503-4.034,7.602-6.931,12.299-8.688
		c1.064-0.428,2.047-0.642,2.949-0.642c4.131,0,6.409,3.988,6.836,11.965c0.3,5.793-0.396,14.505-2.089,26.138
		c-0.272,1.899-0.435,3.038-0.489,3.418c-0.169,12.677,1.945,21.532,6.342,26.564L832.106,493.828z"/>
	<path fill="#EF4236" d="M929.589,459.714c4.152-2.563,7.107-3.846,8.864-3.846c1.756,0,2.279,1.33,1.566,3.988
		c-3.29,8.024-10.034,16.452-20.234,25.283c-9.935,8.545-19.212,14.196-27.831,16.949c-3.014,0.617-5.922,0.926-8.723,0.926
		c-13.912,0-24.62-7.88-32.122-23.645c-2.551-5.364-2.573-12.723-0.067-22.077c1.056-3.94,2.569-8.262,4.542-12.962
		c3.546-8.45,11.782-14.03,24.71-16.736c1.763-0.38,3.452-0.57,5.066-0.57c4.416,0,8.165,1.425,11.247,4.273
		c3.502,3.229,5.938,8.048,7.308,14.458c0.031,2.896-0.291,5.602-0.965,8.118c-1.998,7.455-7.097,13.461-15.297,18.019
		c-1.343,0.76-3.054,1.472-5.13,2.136c-2.34,0.761-3.75,1.236-4.228,1.425c-1.137,0.523-1.813,1.188-2.03,1.994l-0.039,0.143
		c-0.173,0.997,0.296,2.35,1.405,4.06c2.356,3.608,5.695,5.412,10.016,5.412c1.234,0,2.554-0.143,3.96-0.427
		c5.886-1.234,12.484-5.128,19.795-11.68C921.186,466.267,927.247,461.187,929.589,459.714z M871.315,465.625
		c3.038,0,5.817-1.067,8.337-3.204c2.325-1.947,4.019-4.369,5.08-7.265c0.173-0.474,0.325-0.95,0.453-1.425
		c0.611-2.279,0.582-4.297-0.087-6.053c-0.884-2.374-2.747-3.75-5.587-4.131c-0.369-0.047-0.718-0.071-1.05-0.071
		c-1.899,0-3.582,0.783-5.045,2.351c-1.525,1.613-2.669,3.846-3.432,6.694C868.279,458.884,868.723,463.252,871.315,465.625z"/>
	<path fill="#EF4236" d="M1014.642,482.078c2.146,4.748,2.807,8.665,1.979,11.75c-1.051,2.327-3.076,4.393-6.075,6.196
		c-2.953,1.806-5.807,2.707-8.56,2.707c-2.279,0-3.987-0.713-5.126-2.138c-2.369-2.848-3.755-8.403-4.151-16.664
		c-0.265-6.456-1.021-10.896-2.271-13.318c-0.605,0.666-1.514,1.662-2.725,2.991c-7.303,8.119-13.075,13.983-17.318,17.591
		c-7.305,6.172-14.222,9.924-20.748,11.252c-1.908,0.382-3.69,0.57-5.353,0.57c-4.843,0-8.346-1.542-10.51-4.629
		c-2.212-3.086-2.748-7.288-1.608-12.605c2.875-10.729,13.218-23.905,31.03-39.526c21.276-14.196,36.377-21.294,45.304-21.294h0.712
		c3.607,0,5.517,3.418,5.727,10.255c0.156,3.847-0.356,9.924-1.537,18.232c-0.445,2.896-0.684,4.677-0.719,5.341
		c0.002,0.523-0.068,1.757-0.209,3.704c-0.462,6.505-0.433,11.181,0.086,14.029C1012.808,477.757,1013.499,479.609,1014.642,482.078
		z M988.259,448.177c-0.234-0.188-0.541-0.284-0.921-0.284c-1.566,0-4.129,1.495-7.684,4.485
		c-4.557,3.895-9.463,9.094-14.719,15.598c-4.858,6.078-7.961,10.659-9.31,13.745c5.258-1.377,11.62-5.982,19.085-13.816
		C982.029,460.261,986.545,453.685,988.259,448.177z"/>
	<path fill="#EF4236" d="M1123.392,430.088c0.399,1.52,0.416,2.967,0.047,4.344c-0.293,1.093-0.805,2.112-1.533,3.062
		c-2.942,3.894-8.521,6.552-16.736,7.976c-5.072,0.855-12.672,1.663-22.798,2.423l-2.906,0.213
		c-0.137,0.333-0.462,1.282-0.978,2.849c-1.4,3.988-2.4,7.098-2.998,9.33c-0.254,0.95-0.441,1.733-0.559,2.35
		c-0.864,5.176-2.275,11.681-4.231,19.514l-0.858,3.205c-2.914,10.873-5.379,16.619-7.396,17.235
		c-0.172,0.284-1.444,0.427-3.818,0.427c-5.745,0-8.792-0.237-9.139-0.712c-2.945-3.893-2.643-12.464,0.907-25.71
		c1.08-4.034,2.459-8.475,4.138-13.318c0.288-0.9,0.548-1.779,0.777-2.635c1.106-4.13,1.106-7.051-0.003-8.76
		c-0.971-1.52-3.805-2.278-8.506-2.278h-1.281c-0.773,0.047-1.491,0.071-2.156,0.071c-3.181,0-5.526-0.285-7.035-0.855
		c-2.971-1.139-4.679-3.536-5.123-7.193l0.115-0.427c0.471-1.756,1.459-3.229,2.963-4.415c3.397-2.754,8.703-4.131,15.92-4.131
		c1.613,0,2.973,0.071,4.074,0.213c0.875,0.096,1.694,0.143,2.454,0.143c1.804,0,3.625-0.331,5.466-0.996
		c1.109-6.268,2.479-12.438,4.106-18.518c1.26-4.7,2.666-9.329,4.22-13.888c4.807-13.862,9.916-23.098,15.329-27.704
		c2.651-2.278,5.378-3.418,8.18-3.418h0.712c1.141,0,2.016,0.452,2.629,1.354c1.352,2.041,0.839,7.502-1.54,16.38
		c-1.399,5.224-3.442,11.609-6.13,19.157c-1.751,4.939-2.854,8.167-3.308,9.686c-0.506,1.71-1.128,3.942-1.865,6.695l-2.271,8.476
		c-0.203,0.759,1.143,1.139,4.039,1.139c0.615,0,1.311-0.023,2.084-0.071c4.479-0.237,10.166-0.997,17.062-2.279
		c0.356-0.094,1.145-0.284,2.36-0.569c4.314-1.044,7.541-1.567,9.678-1.567C1120.903,426.882,1122.871,427.952,1123.392,430.088z"/>
	<path fill="#EF4236" d="M1192.044,459.714c4.152-2.563,7.107-3.846,8.865-3.846c1.756,0,2.278,1.33,1.566,3.988
		c-3.29,8.024-10.035,16.452-20.234,25.283c-9.936,8.545-19.213,14.196-27.831,16.949c-3.014,0.617-5.922,0.926-8.723,0.926
		c-13.912,0-24.62-7.88-32.122-23.645c-2.551-5.364-2.573-12.723-0.066-22.077c1.055-3.94,2.568-8.262,4.541-12.962
		c3.546-8.45,11.782-14.03,24.71-16.736c1.763-0.38,3.452-0.57,5.067-0.57c4.415,0,8.164,1.425,11.246,4.273
		c3.502,3.229,5.938,8.048,7.308,14.458c0.031,2.896-0.29,5.602-0.964,8.118c-1.998,7.455-7.098,13.461-15.298,18.019
		c-1.343,0.76-3.054,1.472-5.13,2.136c-2.34,0.761-3.75,1.236-4.228,1.425c-1.138,0.523-1.813,1.188-2.03,1.994l-0.038,0.143
		c-0.173,0.997,0.296,2.35,1.405,4.06c2.355,3.608,5.695,5.412,10.016,5.412c1.234,0,2.555-0.143,3.96-0.427
		c5.886-1.234,12.484-5.128,19.795-11.68C1183.641,466.267,1189.702,461.187,1192.044,459.714z M1133.771,465.625
		c3.038,0,5.817-1.067,8.337-3.204c2.325-1.947,4.019-4.369,5.08-7.265c0.173-0.474,0.325-0.95,0.452-1.425
		c0.611-2.279,0.582-4.297-0.086-6.053c-0.885-2.374-2.747-3.75-5.588-4.131c-0.369-0.047-0.718-0.071-1.05-0.071
		c-1.899,0-3.582,0.783-5.045,2.351c-1.525,1.613-2.669,3.846-3.433,6.694C1130.734,458.884,1131.178,463.252,1133.771,465.625z"/>
	<path fill="#EF4236" d="M1276.573,427.952c1.972,1.851,2.679,3.821,2.119,5.911c-0.141,0.522-0.383,1.068-0.724,1.638
		c-11.117,4.985-21.108,11.798-29.977,20.439c-9.749,9.449-17.692,20.487-23.829,33.116c-4.475,9.259-8.588,13.888-12.338,13.888
		c-1.615,0-3.16-0.878-4.636-2.635c-3.626-4.368-5.118-12.795-4.478-25.282c0.486-9.971,1.996-19.68,4.528-29.129
		c1.932-3.846,4.087-6.48,6.462-7.904c1.115-0.617,2.172-0.926,3.168-0.926c1.092,0,2.095,0.332,3.01,0.997
		c4.356,3.229,5.332,10.753,2.924,22.575c3.867-7.168,10.357-14.646,19.472-22.434c10.401-8.877,19.354-13.317,26.856-13.317h0.143
		C1271.933,424.889,1274.365,425.911,1276.573,427.952z"/>
	<path fill="#EF4236" d="M1424.86,449.673c0.395,2.421,0.25,4.914-0.438,7.478c-1.832,6.837-7.481,14.102-16.949,21.792
		c-9.274,7.503-18.414,12.108-27.418,13.817c-3.502,0.665-5.645,1.4-6.431,2.208c-0.448,0.427-0.861,1.353-1.243,2.777
		c-0.203,0.76-0.398,1.662-0.582,2.706c-0.488,2.706-0.98,4.985-1.477,6.837l-0.615,2.563c-4.196,16.19-6.99,29.01-8.382,38.458
		c-0.106,0.57-0.228,1.115-0.368,1.639c-0.521,1.945-1.434,3.488-2.735,4.629c-1.424,1.234-3.156,1.852-5.197,1.852
		c-2.802,0-5.696-1.068-8.685-3.205c-2.906-2.09-3.911-6.933-3.015-14.528c0.512-4.036,1.829-10.019,3.953-17.947l1.947-7.265
		c4.675-19.751,8.634-35.68,11.878-47.787c3.359-12.534,5.955-20.984,7.791-25.354c2.03-5.982,4.042-9.946,6.036-11.894
		c1.399-1.328,3.287-1.994,5.661-1.994h2.066c9.59,0,18.695,1.899,27.316,5.698C1418.14,436.569,1423.768,442.409,1424.86,449.673z
		 M1378.37,474.599l-0.267,0.997c5.026-0.331,9.963-2.278,14.811-5.84c4.812-3.607,8.296-7.929,10.452-12.962
		c0.223-0.474,0.391-0.926,0.506-1.354c0.509-1.897,0.319-3.584-0.568-5.056c-1.393-2.422-4.136-4.06-8.227-4.915
		c-1.75-0.379-3.361-0.568-4.832-0.568c-1.615,0-3.032,0.237-4.25,0.712c-0.992,1.044-2.023,3.561-3.092,7.549
		c-0.814,3.039-1.656,6.979-2.527,11.822C1379.573,469.4,1378.904,472.605,1378.37,474.599z"/>
	<path fill="#EF4236" d="M1515.496,459.714c4.152-2.563,7.107-3.846,8.864-3.846c1.756,0,2.279,1.33,1.566,3.988
		c-3.289,8.024-10.033,16.452-20.234,25.283c-9.935,8.545-19.211,14.196-27.83,16.949c-3.014,0.617-5.922,0.926-8.723,0.926
		c-13.911,0-24.619-7.88-32.123-23.645c-2.551-5.364-2.572-12.723-0.066-22.077c1.057-3.94,2.57-8.262,4.541-12.962
		c3.547-8.45,11.783-14.03,24.711-16.736c1.764-0.38,3.452-0.57,5.067-0.57c4.415,0,8.164,1.425,11.247,4.273
		c3.502,3.229,5.938,8.048,7.307,14.458c0.031,2.896-0.291,5.602-0.965,8.118c-1.997,7.455-7.096,13.461-15.297,18.019
		c-1.343,0.76-3.054,1.472-5.131,2.136c-2.34,0.761-3.748,1.236-4.227,1.425c-1.137,0.523-1.814,1.188-2.029,1.994l-0.039,0.143
		c-0.173,0.997,0.297,2.35,1.405,4.06c2.355,3.608,5.694,5.412,10.016,5.412c1.234,0,2.554-0.143,3.96-0.427
		c5.887-1.234,12.484-5.128,19.795-11.68C1507.093,466.267,1513.154,461.187,1515.496,459.714z M1457.223,465.625
		c3.038,0,5.817-1.067,8.337-3.204c2.325-1.947,4.02-4.369,5.08-7.265c0.173-0.474,0.325-0.95,0.452-1.425
		c0.61-2.279,0.583-4.297-0.087-6.053c-0.884-2.374-2.746-3.75-5.588-4.131c-0.367-0.047-0.717-0.071-1.049-0.071
		c-1.898,0-3.582,0.783-5.045,2.351c-1.525,1.613-2.669,3.846-3.432,6.694C1454.187,458.884,1454.63,463.252,1457.223,465.625z"/>
	<path fill="#EF4236" d="M1571.747,427.168c7.549,0,12.815,2.849,15.8,8.546c2.983,5.697,3.197,13.317,0.641,22.861
		c-3.016,11.252-8.583,21.223-16.704,29.911c-9.146,9.686-18.801,14.528-28.962,14.528c-1.993,0-3.978-0.213-5.952-0.641
		c-7.604-1.566-12.066-6.623-13.385-15.17c-0.869-5.792-0.292-12.463,1.73-20.012c0.509-1.898,1.102-3.846,1.779-5.84
		c3.544-10.398,9.302-18.684,17.271-24.855c7.934-6.22,16.766-9.329,26.5-9.329H1571.747z M1550.454,455.869
		c-2.367,2.991-4.067,6.41-5.098,10.256l-0.268,0.997c-1.063,4.32-1.094,7.977-0.09,10.968c0.91,2.802,2.529,4.201,4.856,4.201
		c2.61,0,5.858-1.756,9.745-5.27c4.004-3.607,6.954-8.237,8.849-13.889c0.251-0.758,0.472-1.494,0.663-2.207
		c1.271-4.747,1.279-8.854,0.025-12.32c-0.748-1.994-2.167-2.991-4.256-2.991c-2.469,0-5.303,1.187-8.503,3.561
		C1553.312,451.407,1551.337,453.637,1550.454,455.869z"/>
	<path fill="#EF4236" d="M1670.511,449.673c0.396,2.421,0.25,4.914-0.437,7.478c-1.832,6.837-7.482,14.102-16.949,21.792
		c-9.274,7.503-18.414,12.108-27.418,13.817c-3.502,0.665-5.645,1.4-6.432,2.208c-0.447,0.427-0.86,1.353-1.243,2.777
		c-0.203,0.76-0.398,1.662-0.582,2.706c-0.488,2.706-0.979,4.985-1.476,6.837l-0.616,2.563c-4.195,16.19-6.989,29.01-8.381,38.458
		c-0.107,0.57-0.229,1.115-0.368,1.639c-0.521,1.945-1.434,3.488-2.735,4.629c-1.424,1.234-3.157,1.852-5.198,1.852
		c-2.802,0-5.695-1.068-8.684-3.205c-2.906-2.09-3.912-6.933-3.015-14.528c0.511-4.036,1.828-10.019,3.953-17.947l1.947-7.265
		c4.674-19.751,8.634-35.68,11.878-47.787c3.358-12.534,5.954-20.984,7.79-25.354c2.031-5.982,4.042-9.946,6.037-11.894
		c1.398-1.328,3.287-1.994,5.661-1.994h2.065c9.59,0,18.695,1.899,27.316,5.698C1663.79,436.569,1669.419,442.409,1670.511,449.673z
		 M1624.021,474.599l-0.268,0.997c5.026-0.331,9.963-2.278,14.812-5.84c4.812-3.607,8.295-7.929,10.452-12.962
		c0.222-0.474,0.391-0.926,0.505-1.354c0.51-1.897,0.319-3.584-0.567-5.056c-1.393-2.422-4.136-4.06-8.227-4.915
		c-1.75-0.379-3.362-0.568-4.833-0.568c-1.615,0-3.032,0.237-4.25,0.712c-0.992,1.044-2.022,3.561-3.092,7.549
		c-0.813,3.039-1.656,6.979-2.526,11.822C1625.224,469.4,1624.555,472.605,1624.021,474.599z"/>
	<path fill="#EF4236" d="M1703.536,490.267c-1.222,4.559-3.178,8.048-5.867,10.469c-1.689,1.521-3.508,2.279-5.453,2.279
		c-1.949,0-3.963-0.807-6.047-2.422c-4.497-3.418-4.203-16.83,0.882-40.237c0.815-3.75,1.312-6.22,1.487-7.407
		c1.434-7.834,3.238-15.811,5.414-23.93l1.164-4.344c4.91-18.326,10.621-36.273,17.133-53.841l0.225-0.569l0.574-0.285
		c3.931-2.09,7.581-3.134,10.952-3.134c1.804,0,3.128,0.641,3.972,1.923c2.009,3.133,1.341,10.944-2.005,23.431
		c-1.729,6.458-4.171,14.149-7.321,23.074c-1.016,2.897-1.635,4.678-1.859,5.342c-1.156,3.608-2.225,7.24-3.205,10.896
		c-4.363,16.285-7.292,33.33-8.787,51.135C1704.565,485.449,1704.146,487.989,1703.536,490.267z"/>
	<path fill="#EF4236" d="M1805.474,459.714c4.151-2.563,7.106-3.846,8.863-3.846c1.756,0,2.279,1.33,1.566,3.988
		c-3.289,8.024-10.033,16.452-20.234,25.283c-9.935,8.545-19.211,14.196-27.83,16.949c-3.014,0.617-5.922,0.926-8.722,0.926
		c-13.913,0-24.621-7.88-32.124-23.645c-2.551-5.364-2.572-12.723-0.066-22.077c1.056-3.94,2.569-8.262,4.541-12.962
		c3.547-8.45,11.782-14.03,24.711-16.736c1.764-0.38,3.452-0.57,5.066-0.57c4.416,0,8.165,1.425,11.247,4.273
		c3.503,3.229,5.938,8.048,7.309,14.458c0.029,2.896-0.292,5.602-0.966,8.118c-1.997,7.455-7.096,13.461-15.297,18.019
		c-1.343,0.76-3.054,1.472-5.131,2.136c-2.34,0.761-3.748,1.236-4.227,1.425c-1.138,0.523-1.813,1.188-2.03,1.994l-0.038,0.143
		c-0.172,0.997,0.297,2.35,1.405,4.06c2.356,3.608,5.694,5.412,10.016,5.412c1.234,0,2.554-0.143,3.96-0.427
		c5.887-1.234,12.484-5.128,19.795-11.68C1797.069,466.267,1803.131,461.187,1805.474,459.714z M1747.199,465.625
		c3.038,0,5.816-1.067,8.337-3.204c2.325-1.947,4.02-4.369,5.08-7.265c0.174-0.474,0.325-0.95,0.453-1.425
		c0.609-2.279,0.581-4.297-0.087-6.053c-0.885-2.374-2.748-3.75-5.588-4.131c-0.369-0.047-0.719-0.071-1.05-0.071
		c-1.898,0-3.582,0.783-5.045,2.351c-1.525,1.613-2.669,3.846-3.433,6.694C1744.163,458.884,1744.606,463.252,1747.199,465.625z"/>
</g>
</svg>
